<svg version="1.1" id="Layer_1" xmlns="http://www.w3.org/2000/svg" xmlns:xlink="http://www.w3.org/1999/xlink" x="0px" y="0px"
	 width="100%" viewBox="0 0 77 84" enable-background="new 0 0 77 84" xml:space="preserve">
<path fill="#151515" opacity="1.000000" stroke="none" 
	d="
M49.000000,85.000000 
	C33.666668,85.000000 18.832701,84.931030 4.000617,85.067169 
	C1.497446,85.090141 0.924547,84.500526 0.934740,81.999733 
	C1.040720,56.000168 1.040720,29.999834 0.934740,4.000266 
	C0.924546,1.499471 1.499235,0.922808 4.000305,0.934445 
	C27.666458,1.044556 51.333538,1.044556 74.999695,0.934445 
	C77.500763,0.922808 78.075447,1.499471 78.065262,4.000266 
	C77.959282,29.999834 77.959282,56.000168 78.065262,81.999733 
	C78.075455,84.500526 77.506790,85.121811 74.998543,85.068680 
	C66.502357,84.888710 58.000000,85.000000 49.000000,85.000000 
z"/>
<path fill="#FCFCFC" opacity="1.000000" stroke="none" 
	d="
M20.843615,71.491493 
	C13.047519,71.341057 12.537738,70.816391 12.509691,63.351364 
	C12.502179,61.351784 12.497687,59.352085 12.511095,57.352570 
	C12.530699,54.428829 13.398152,51.277569 8.272387,51.774551 
	C5.772876,52.016899 4.613379,49.738605 6.003073,47.146683 
	C6.946110,45.387833 7.956853,43.663696 8.982151,41.950871 
	C10.870865,38.795666 11.954145,35.793407 11.432953,31.723989 
	C10.281549,22.733944 19.554630,11.503202 30.241890,7.873482 
	C32.269638,7.184797 34.377861,6.733069 36.996803,6.023596 
	C36.996803,10.160643 36.192062,14.153339 37.168747,17.648193 
	C39.049301,24.377352 38.325809,28.783997 32.094707,33.544827 
	C26.553686,37.778400 28.869604,47.324867 34.779037,51.266350 
	C40.771076,55.262924 48.757511,53.481304 52.649384,47.279827 
	C56.362366,41.363396 54.118320,32.959984 47.493057,29.862413 
	C43.773071,28.123173 43.217628,26.755268 45.587963,23.293827 
	C48.186363,19.499346 46.932888,14.819219 46.706188,10.597690 
	C46.454418,5.909387 48.280537,5.953689 51.750027,7.113406 
	C70.554283,13.398948 77.910904,32.687454 67.703735,50.351925 
	C63.808369,57.093243 61.621170,63.865440 61.880367,71.637238 
	C61.960678,74.045189 64.421410,77.099617 62.325989,78.511894 
	C60.466339,79.765274 57.190739,78.965797 54.539497,78.986214 
	C49.707405,79.023445 44.874569,79.026962 40.042519,78.987251 
	C36.181240,78.955528 32.282425,80.125778 30.658356,74.207855 
	C29.591116,70.318970 24.684435,71.724274 20.843615,71.491493 
z"/>
<path fill="#F8F8F8" opacity="1.000000" stroke="none" 
	d="
M48.886955,40.153915 
	C47.791576,45.826660 44.838715,48.486027 40.797054,47.859455 
	C37.023834,47.274498 34.433296,43.886677 34.876728,40.005199 
	C35.259766,36.652374 37.185658,34.493801 40.477058,33.972507 
	C44.971413,33.260689 47.705597,35.453873 48.886955,40.153915 
z"/>
</svg>